HIERARCHY
ROOT hip
{
  OFFSET 0 0 0
  CHANNELS 6 Xposition Yposition Zposition Zrotation Yrotation Xrotation
  JOINT abdomen
  {
    OFFSET 0 20.6881 -0.73152
    CHANNELS 3 Zrotation Xrotation Yrotation
    JOINT chest
    {
      OFFSET 0 11.7043 -0.48768
      CHANNELS 3 Zrotation Xrotation Yrotation
      JOINT neck
      {
        OFFSET 0 22.1894 -2.19456
        CHANNELS 3 Zrotation Xrotation Yrotation
        JOINT head
        {
          OFFSET -0.24384 7.07133 1.2192
          CHANNELS 3 Zrotation Xrotation Yrotation
          JOINT leftEye
          {
            OFFSET 4.14528 8.04674 8.04672
            CHANNELS 3 Zrotation Xrotation Yrotation
            End Site
            {
              OFFSET 1 0 0
            }
          }
          JOINT rightEye
          {
            OFFSET -3.6576 8.04674 8.04672
            CHANNELS 3 Zrotation Xrotation Yrotation
            End Site
            {
              OFFSET 1 0 0
            }
          }
        }
      }
      JOINT rCollar
      {
        OFFSET -2.68224 19.2634 -4.8768
        CHANNELS 3 Zrotation Xrotation Yrotation
        JOINT rShldr
        {
          OFFSET -8.77824 -1.95073 1.46304
          CHANNELS 3 Zrotation Xrotation Yrotation
          JOINT rForeArm
          {
            OFFSET -28.1742 -1.7115 0.48768
            CHANNELS 3 Zrotation Xrotation Yrotation
            JOINT rHand
            {
              OFFSET -22.5879 0.773209 7.07136
              CHANNELS 3 Zrotation Xrotation Yrotation
              JOINT rThumb1
              {
                OFFSET -1.2192 -0.487915 3.41376
                CHANNELS 3 Zrotation Xrotation Yrotation
                JOINT rThumb2
                {
                  OFFSET -3.37035 -0.52449 3.41376
                  CHANNELS 3 Zrotation Xrotation Yrotation
                  End Site
                  {
                    OFFSET -1.78271 -1.18214 1.43049
                  }
                }
              }
              JOINT rIndex1
              {
                OFFSET -7.75947 0.938293 5.60832
                CHANNELS 3 Zrotation Xrotation Yrotation
                JOINT rIndex2
                {
                  OFFSET -2.54057 -0.884171 1.56538
                  CHANNELS 3 Zrotation Xrotation Yrotation
                  End Site
                  {
                    OFFSET -1.62519 -0.234802 1.16502
                  }
                }
              }
              JOINT rMid1
              {
                OFFSET -8.24714 1.18213 3.41376
                CHANNELS 3 Zrotation Xrotation Yrotation
                JOINT rMid2
                {
                  OFFSET -3.10165 -0.590103 1.0647
                  CHANNELS 3 Zrotation Xrotation Yrotation
                  End Site
                  {
                    OFFSET -2.48547 -0.328903 0.83742
                  }
                }
              }
              JOINT rRing1
              {
                OFFSET -8.82822 0.546677 1.51678
                CHANNELS 3 Zrotation Xrotation Yrotation
                JOINT rRing2
                {
                  OFFSET -2.60934 -0.819778 -0.0198488
                  CHANNELS 3 Zrotation Xrotation Yrotation
                  End Site
                  {
                    OFFSET -2.33842 -0.294052 0.168128
                  }
                }
              }
              JOINT rPinky1
              {
                OFFSET -8.27202 -0.0477905 -0.4584
                CHANNELS 3 Zrotation Xrotation Yrotation
                JOINT rPinky2
                {
                  OFFSET -1.82734 -0.647385 -0.700984
                  CHANNELS 3 Zrotation Xrotation Yrotation
                  End Site
                  {
                    OFFSET -1.69225 -0.51767 -0.607171
                  }
                }
              }
            }
          }
        }
      }
      JOINT lCollar
      {
        OFFSET 2.68224 19.2634 -4.8768
        CHANNELS 3 Zrotation Xrotation Yrotation
        JOINT lShldr
        {
          OFFSET 8.77824 -1.95073 1.46304
          CHANNELS 3 Zrotation Xrotation Yrotation
          JOINT lForeArm
          {
            OFFSET 28.1742 -1.7115 0.48768
            CHANNELS 3 Zrotation Xrotation Yrotation
            JOINT lHand
            {
              OFFSET 22.5879 0.773209 7.07136
              CHANNELS 3 Zrotation Xrotation Yrotation
              JOINT lThumb1
              {
                OFFSET 1.2192 -0.487915 3.41376
                CHANNELS 3 Zrotation Xrotation Yrotation
                JOINT lThumb2
                {
                  OFFSET 3.37035 -0.52449 3.41376
                  CHANNELS 3 Zrotation Xrotation Yrotation
                  End Site
                  {
                    OFFSET 1.78271 -1.18214 1.43049
                  }
                }
              }
              JOINT lIndex1
              {
                OFFSET 7.75947 0.938293 5.60832
                CHANNELS 3 Zrotation Xrotation Yrotation
                JOINT lIndex2
                {
                  OFFSET 2.54057 -0.884171 1.56538
                  CHANNELS 3 Zrotation Xrotation Yrotation
                  End Site
                  {
                    OFFSET 1.62519 -0.234802 1.16502
                  }
                }
              }
              JOINT lMid1
              {
                OFFSET 8.24714 1.18213 3.41376
                CHANNELS 3 Zrotation Xrotation Yrotation
                JOINT lMid2
                {
                  OFFSET 3.10165 -0.590103 1.0647
                  CHANNELS 3 Zrotation Xrotation Yrotation
                  End Site
                  {
                    OFFSET 2.48547 -0.328903 0.83742
                  }
                }
              }
              JOINT lRing1
              {
                OFFSET 8.82822 0.546677 1.51678
                CHANNELS 3 Zrotation Xrotation Yrotation
                JOINT lRing2
                {
                  OFFSET 2.60934 -0.819778 -0.0198488
                  CHANNELS 3 Zrotation Xrotation Yrotation
                  End Site
                  {
                    OFFSET 2.33842 -0.294052 0.168128
                  }
                }
              }
              JOINT lPinky1
              {
                OFFSET 8.27202 -0.0477905 -0.4584
                CHANNELS 3 Zrotation Xrotation Yrotation
                JOINT lPinky2
                {
                  OFFSET 1.82734 -0.647385 -0.700984
                  CHANNELS 3 Zrotation Xrotation Yrotation
                  End Site
                  {
                    OFFSET 1.69225 -0.51767 -0.607171
                  }
                }
              }
            }
          }
        }
      }
    }
  }
  JOINT rButtock
  {
    OFFSET -8.77824 4.35084 1.2192
    CHANNELS 3 Zrotation Xrotation Yrotation
    JOINT rThigh
    {
      OFFSET 0 -1.70687 -2.19456
      CHANNELS 3 Zrotation Xrotation Yrotation
      JOINT rShin
      {
        OFFSET 0 -36.8199 0.73152
        CHANNELS 3 Zrotation Xrotation Yrotation
        JOINT rFoot
        {
          OFFSET 0.73152 -45.1104 -5.12064
          CHANNELS 3 Zrotation Xrotation Yrotation
          End Site
          {
            OFFSET -1.1221 -3.69964 12.103
          }
        }
      }
    }
  }
  JOINT lButtock
  {
    OFFSET 8.77824 4.35084 1.2192
    CHANNELS 3 Zrotation Xrotation Yrotation
    JOINT lThigh
    {
      OFFSET 0 -1.70687 -2.19456
      CHANNELS 3 Zrotation Xrotation Yrotation
      JOINT lShin
      {
        OFFSET 0 -36.8199 0.73152
        CHANNELS 3 Zrotation Xrotation Yrotation
        JOINT lFoot
        {
          OFFSET -0.73152 -45.1104 -5.12064
          CHANNELS 3 Zrotation Xrotation Yrotation
          End Site
          {
            OFFSET 1.1221 -3.69964 12.103
          }
        }
      }
    }
  }
}
MOTION
Frames:	9
Frame Time:	0.00833333
0.0 0.0 0.0 0.0 0.0 0.0 0.0 0.0 0.0 0.0 0.0 0.0 0.0 0.0 0.0 0.0 0.0 0.0 0.0 0.0 0.0 0.0 0.0 0.0 0.0 0.0 0.0 0.0 0.0 0.0 0.0 0.0 0.0 0.0 0.0 0.0 0.0 0.0 0.0 0.0 0.0 0.0 0.0 0.0 0.0 0.0 0.0 0.0 0.0 0.0 0.0 0.0 0.0 0.0 0.0 0.0 0.0 0.0 0.0 0.0 0.0 0.0 0.0 0.0 0.0 0.0 0.0 0.0 0.0 0.0 0.0 0.0 0.0 0.0 0.0 0.0 0.0 0.0 0.0 0.0 0.0 0.0 0.0 0.0 0.0 0.0 0.0 0.0 0.0 0.0 0.0 0.0 0.0 0.0 0.0 0.0 0.0 0.0 0.0 0.0 0.0 0.0 0.0 0.0 0.0 0.0 0.0 0.0 0.0 0.0 0.0 0.0 0.0 0.0 0.0 0.0 0.0 0.0 0.0 0.0 0.0 0.0 0.0 0.0 0.0 0.0 0.0 0.0 0.0 0.0 0.0 0.0
-90.8868 84.2255 17.3277 -103.171481 86.470237 -95.486304 1.316214 -1.466281 7.919245 0.066989 1.17587 -7.294751 9.355841 17.844113 135.113951 -8.200777 20.138834 -145.14092 -0.003814 0.0 -0.002918 0.002032 -0.0 -0.0015 -157.505076 -19.193904 164.92707 13.394635 -59.339588 21.307353 0.586676 -2.301383 -67.569919 162.535603 -37.815861 139.059172 -0.835935 0.823874 0.134296 -129.304033 -25.733526 114.395109 11.26161 -20.007998 -4.873242 -159.124636 -13.640843 110.758777 -14.52524 31.639965 10.541598 -156.543031 13.869475 140.283056 -145.101403 -1.287573 -178.7231 11.781607 57.899658 -1.838109 -133.069087 -17.09264 -130.559449 -80.1771 -52.722367 -80.252356 149.307653 24.347673 -154.299092 16.483707 37.5182 -27.295834 10.239982 -57.93236 79.366406 -161.496969 -41.781978 -137.908434 35.807142 27.85426 -14.247876 16.357699 6.596761 -27.775387 154.519621 -23.052136 -122.001507 -13.86339 -4.177786 10.357208 -9.568726 -30.023826 3.222813 18.798177 43.065159 -15.044244 0.010544 -1.001503 0.313235 -5.769637 35.873937 -6.12278 8.209333 -17.607503 7.747907 -9.267451 20.534545 -5.055329 -179.99821 75.748822 -0.000832 178.736399 63.313412 179.343628 -6.710696 -13.009194 -94.89439 -18.060544 -44.73632 -109.474486 0.0078 -0.001996 0.005386 1.055569 -4.044954 -0.943438 -7.74371 7.124785 -82.767743 153.608732 -9.650977 -101.172084
-91.43050000000001 84.19579999999999 16.7691 -97.222696 87.452577 -89.642109 1.153957 -3.718843 45.828176 2.667143 1.681675 -44.68447 -9.570754 11.16095 -58.115096 18.39142 0.312028 37.148886 -0.002037 -0.0 7.6e-05 -0.002037 -0.0 7.6e-05 -146.111113 32.987073 150.766322 126.388998 -40.495597 127.371496 -22.419932 -44.395638 51.523761 -3.046148 3.977688 -0.873525 -6.951909 6.692875 1.463407 64.775851 -72.939618 -1.005915 -4.312471 6.653887 2.602832 177.340778 -38.338122 104.556213 4.878934 -15.083335 -2.223305 -16.376475 40.330036 13.044327 -144.805413 12.019496 177.047069 -122.89576 -71.804425 -143.740237 -147.53001 19.882813 -143.867819 -144.419578 2.59124 -139.323056 1.684554 9.036438 -2.152091 -45.993876 -15.592597 -10.09245 7.328879 -2.697112 -71.303026 5.493756 5.503212 1.417714 8.633428 8.241565 -1.930577 -8.143842 -8.057767 0.475957 129.400456 16.967145 -108.655367 -129.314056 -68.003642 -75.745899 166.187642 -24.253409 -145.088741 -50.734936 -72.484705 -24.453522 144.86836 -8.214332 176.525189 148.521929 -39.670874 171.77992 147.732983 20.59882 144.045084 152.946608 27.839372 144.814952 0.011382 -0.000725 0.010061 -1.527102 -16.104525 -7.872319 4.010617 12.940844 78.155657 -8.909361 -50.577389 -96.78491 0.022021 -0.000723 0.018336 2.614098 -5.891352 -13.213213 -0.813073 6.774785 29.178272 78.849985 -22.995665 -15.048538
-91.93430000000001 84.1347 16.3141 -84.440459 88.099515 -77.099695 1.663536 -7.619791 112.333267 6.015417 -3.080622 -110.510435 10.077835 17.624289 105.767821 -20.122781 17.302121 -135.571286 -0.00071 0.0 -0.002517 -0.000655 -0.0 0.005323 -159.218302 -49.638073 170.769253 -59.638993 -29.733593 -34.417958 -171.187837 1.916449 -84.198864 -5.794212 9.824521 -0.867509 -13.933686 12.911454 3.671381 -153.740509 -57.832011 108.982819 -153.784841 -21.685095 121.828853 -177.115818 -43.843889 115.050693 6.435148 -20.101935 -2.693912 -150.610436 27.367141 136.27814 -0.175369 -6.714555 -2.122454 9.000654 19.585002 2.707212 -146.497941 16.370714 -142.984162 -156.760561 40.168995 -146.299747 130.118648 54.785241 -133.977576 107.356293 36.029534 -83.618259 5.92375 -29.017337 136.810421 -176.823297 -15.839291 -143.364616 2.809079 2.749872 -0.498179 -25.098986 -37.971444 14.240597 47.421591 40.018978 -37.390935 142.806284 20.099894 -105.816243 171.776668 -40.84123 -145.174968 160.114381 4.794415 -141.727981 145.079536 5.288658 -179.204772 -10.848158 14.894854 7.222993 -5.466097 16.212119 -4.919907 131.41072 -25.78048 129.275072 0.002379 0.000453 0.001129 -2.40582 -21.38335 -1.844716 5.262572 19.58433 110.406791 151.110315 62.024143 141.008773 0.003672 -0.001321 0.002048 4.10753 -7.560333 -29.406353 -4.840436 9.417151 51.450177 106.307068 -28.734166 -4.19493
-92.3685 84.09450000000001 15.8936 -68.970522 88.54664 -61.972256 4.887044 -9.800676 -166.217294 0.439328 -9.258019 168.541263 -6.205466 10.050829 -23.711543 9.784086 -14.575136 -13.87252 0.004449 0.0 0.00028 -0.001153 -0.0 0.005065 4.221211 -52.853114 -10.443089 95.524589 26.039552 -60.544938 167.9022 -0.674012 31.969287 -179.39877 3.89371 143.632973 -173.820915 -11.487912 89.889032 -117.788861 14.82918 54.834035 170.556876 -65.320568 110.658461 -0.205093 26.091716 -0.843726 7.024252 -21.99216 -2.835554 20.244242 -47.049672 0.868781 -0.004573 -0.70136 -0.219632 -156.402757 -23.954893 174.657111 -145.979502 14.660038 -142.533372 -171.721928 70.889589 -142.825387 156.003625 -6.903998 -162.544129 -140.034501 -42.425204 169.829544 -171.060062 27.302166 -37.419381 174.248254 8.008793 -141.823848 5.546861 5.371752 -1.105068 166.045559 -70.812418 -108.927505 12.274518 17.025839 -8.103147 0.759298 13.849415 -2.579806 6.486559 16.747933 -4.207715 8.466075 28.50613 -6.918697 0.019819 -1.575627 0.496049 156.267314 -21.71029 -174.400765 153.655402 43.089514 148.585646 155.160917 33.9284 145.827632 -179.996011 75.749489 -0.004173 175.879962 48.260892 -175.898609 6.326815 -17.702407 146.254704 158.095582 -23.174383 -19.045025 0.015425 0.001212 0.013091 3.254262 -8.700171 47.07302 19.229955 14.814696 88.60706 88.457994 70.864533 163.085483
-92.77590000000001 84.0574 15.553700000000001 -39.934048 88.665978 -33.175016 2.260356 -5.60915 39.893466 2.810579 4.271708 -37.766746 5.732233 27.828368 160.326036 -1.582146 37.285533 156.625115 0.000787 -0.0 -0.000427 0.000975 -0.0 -0.001127 -157.878197 -22.974113 165.625064 118.344048 -6.804307 -168.920011 176.88841 -2.825402 30.730023 176.82685 -8.898459 143.714175 1.945068 -1.929245 -0.266704 42.589166 -69.457436 -17.284452 109.76161 -76.307732 58.876912 -116.098727 40.16837 97.170154 -8.19414 20.425359 5.477412 -166.815181 -15.991607 144.168261 -0.032088 -2.280484 -0.719883 -155.454756 -4.638008 172.415753 -4.86456 -11.286756 -4.556964 -18.74402 -36.790836 -19.846813 157.454288 -18.704887 -164.835788 -129.961019 7.285658 162.24464 177.581792 -37.961601 -29.506261 178.633767 -7.534805 -143.231121 170.703001 -8.386745 -89.949348 30.46721 -30.815776 -4.549842 3.654975 5.682693 -2.1852 -8.456905 3.509699 -0.0486 -14.551735 -44.018267 2.828288 33.292439 54.433454 -27.870882 22.324778 62.711983 -36.759714 -5.077271 22.365621 -0.224469 133.225637 -16.818573 130.709043 -6.665689 10.301413 -1.009647 -179.993528 75.75013 -0.005528 174.593802 46.649154 176.724367 12.216384 -21.621577 112.632545 -29.145664 -67.348201 66.578722 -179.803364 75.750022 -0.150823 -171.681847 64.921104 170.062811 -1.494916 -25.128732 -56.478146 -110.249157 -53.237113 167.52793
-93.14489999999999 84.04979999999999 15.198500000000001 -11.717883 88.632988 -5.269751 2.257771 -9.166233 171.233788 3.055395 -8.924684 -168.637685 -5.549856 27.7899 -130.078694 29.957613 22.327608 82.797342 -0.00187 0.0 -0.001111 0.003558 -0.0 -0.000858 -154.703153 1.408218 160.758719 114.507876 4.940859 165.559349 168.034104 -11.00589 26.798346 -179.833118 1.904037 143.640083 -172.608641 -10.288549 89.934388 -136.642809 10.778557 68.634103 -139.10605 3.967414 115.24139 -163.219397 -14.7853 118.973922 -6.835152 17.524652 4.462447 179.902157 -49.59702 141.207084 -0.023012 4.614893 1.451725 -155.93856 -3.395512 172.274243 -8.295095 -17.757578 -7.831124 11.065214 27.097849 6.278751 107.82532 65.020425 -111.24336 114.373754 18.383947 -82.506971 -169.958079 -20.384777 70.025994 15.783053 23.151997 -1.560499 8.551207 8.166092 -1.90624 2.658083 3.881133 -7.459971 163.100348 -38.222783 -122.613932 -166.365166 -59.526652 -102.720985 126.245883 49.456415 -115.830626 -6.246881 -8.516956 0.668254 145.076639 5.500325 -179.140011 -11.177248 21.853541 6.458554 53.684505 -50.261946 52.370979 -14.5699 36.398941 -6.987915 179.998173 75.750827 0.001599 173.546989 46.578893 -163.50112 4.205347 -22.632981 111.357257 -49.615411 -50.736615 40.897801 -0.002257 0.000573 -0.001921 2.193724 -9.829478 165.547033 10.001413 -12.310623 152.764496 80.545763 37.05512 7.176367
-93.5152 84.0342 14.8529 9.167168 88.307562 15.338555 -0.923773 -5.211225 70.064952 5.811682 1.613089 -67.975764 10.215287 14.45262 64.266786 -29.062758 4.608345 -103.133174 0.004421 -0.0 -0.000445 -0.001266 -0.0 0.000173 -3.321798 16.19011 4.119433 87.842207 3.061773 11.082082 171.169074 -12.835931 29.837022 178.955741 -1.430319 143.786497 126.693022 -48.070496 64.03202 -13.9026 -64.750557 -29.861891 -16.501765 21.565196 11.296468 -167.963928 -19.120866 110.128943 -153.257412 13.778092 138.818247 -165.489039 -11.678587 143.565413 -0.004383 3.253518 1.02214 -156.816435 -29.495371 175.310921 4.530993 13.151837 4.099694 -152.893358 30.564837 -147.399897 -0.726336 -4.599476 0.991922 103.021012 -40.66261 -172.8594 175.368243 -10.904836 68.525769 8.791367 5.156412 1.858155 178.032247 -15.596414 -89.535739 42.088552 -19.634213 -3.188642 3.883167 6.020532 -2.330191 -4.18922 9.225536 -1.352361 15.237314 32.690663 -11.138236 39.089551 57.391287 -33.451827 145.113114 -0.54774 178.957914 145.47125 -49.7924 167.840202 125.08705 -28.757178 122.848672 151.34773 26.115347 144.898996 -0.000255 -0.00071 0.000852 -6.046879 -28.268498 -162.434924 -11.681339 -28.199725 -35.825468 -96.152155 21.238226 -171.479688 179.998057 75.749269 0.000385 -177.08714 68.984663 1.794538 -0.649592 22.894595 166.143759 -81.335121 -1.465828 -167.606147
-93.7538 83.9859 14.5121 27.875288 87.918011 33.521381 0.102848 -3.146266 9.063131 -0.610731 4.551452 -6.870632 12.849142 21.067315 101.817599 -27.966728 25.217244 -135.523624 0.001019 -0.0 -0.001067 0.001019 -0.0 -0.001067 -150.121312 21.697245 155.22129 87.642485 -36.868064 137.035675 22.270564 -10.072687 116.295798 -18.110256 38.680121 4.701332 -179.908368 -17.382718 89.281025 -156.150902 4.375397 84.948422 -41.360965 37.95751 32.052776 163.539142 -48.232226 100.394535 -147.466986 25.810057 134.459041 66.370212 -76.039668 38.645066 -0.031119 -2.314749 -0.726105 11.370309 -49.344352 -6.291376 10.741396 35.468785 9.211324 -127.157409 -31.728756 -124.866257 142.662072 39.988591 -147.057541 85.24741 30.637163 -49.269242 175.065902 -4.898441 69.840973 8.376514 4.588099 1.913449 175.082584 -12.73268 -89.816671 29.363117 -32.720627 -1.550923 -1.300116 -2.140368 0.717795 -125.409317 -61.112146 -67.005851 94.246351 60.22704 -85.501733 64.817464 63.458123 -57.824702 145.123362 1.953818 179.741443 157.316178 52.644093 -174.50812 -12.531573 42.530994 -10.465816 152.412029 26.527564 146.415535 -179.981273 75.749456 -0.012237 170.094448 49.273783 8.977705 -6.98238 26.155696 -113.866363 140.330585 76.014237 -49.054705 -179.994874 75.749462 -0.004268 -179.383458 67.202192 179.056449 9.628085 -17.820884 80.955317 7.860261 51.930592 100.234128
